<svg id="kity_svg_6" xmlns="http://www.w3.org/2000/svg" xmlns:xlink="http://www.w3.org/1999/xlink" version="1.1" width="1304" height="335" style="background: rgb(251, 251, 251); visibility: visible;" viewBox="0 0 1304 335"><defs id="kity_defs_7"><linearGradient id="kity_linearGradient_17" x1="0" y1="0" x2="0" y2="1"><stop id="kity_stop_18" offset="0" stop-color="rgb(255, 255, 255)"></stop><stop id="kity_stop_19" offset="1" stop-color="rgb(204, 204, 204)"></stop></linearGradient><marker id="kity_marker_2" orient="auto" refX="6" refY="0" viewBox="-7 -7 14 14" markerWidth="7" markerHeight="7" markerUnits="userSpaceOnUse"><path id="kity_path_3" fill="rgb(115, 161, 191)" stroke="none" d="M6,0A6,6,0,1,1,-6,0A6,6,0,1,1,6,0"></path></marker></defs><g id="kity_g_8"><g id="minder1" text-rendering="optimize-speed"><g id="minder_connect_group1"><path id="kity_path_31" fill="none" stroke="rgb(115, 161, 191)" stroke-width="1" d="M712.5,153.5A190,96,0,0,1,902.5,57.5"></path><path id="kity_path_39" fill="none" stroke="rgb(115, 161, 191)" stroke-width="1" d="M972.5,57.5C987.5,57.5,987.5,45.5,1002.5,45.5L1284.5,45.5"></path><path id="kity_path_47" fill="none" stroke="rgb(115, 161, 191)" stroke-width="1" d="M972.5,57.5C987.5,57.5,987.5,97.5,1002.5,97.5L1224.5,97.5"></path><path id="kity_path_55" fill="none" stroke="rgb(115, 161, 191)" stroke-width="1" d="M712.5,153.5A190,96,0,0,0,902.5,249.5"></path><path id="kity_path_71" fill="none" stroke="rgb(115, 161, 191)" stroke-width="1" d="M972.5,249.5C987.5,249.5,987.5,211.5,1002.5,211.5L1056.5,211.5"></path><path id="kity_path_79" fill="none" stroke="rgb(115, 161, 191)" stroke-width="1" d="M972.5,249.5C987.5,249.5,987.5,315.5,1002.5,315.5L1068.5,315.5"></path><path id="kity_path_87" fill="none" stroke="rgb(115, 161, 191)" stroke-width="1" d="M1068.5,315.5C1083.5,315.5,1083.5,315.5,1098.5,315.5L1176.5,315.5"></path><path id="kity_path_103" fill="none" stroke="rgb(115, 161, 191)" stroke-width="1" d="M1056.5,211.5C1071.5,211.5,1071.5,159.5,1086.5,159.5L1128.5,159.5"></path><path id="kity_path_111" fill="none" stroke="rgb(115, 161, 191)" stroke-width="1" d="M1056.5,211.5C1071.5,211.5,1071.5,211.5,1086.5,211.5L1140.5,211.5"></path><path id="kity_path_119" fill="none" stroke="rgb(115, 161, 191)" stroke-width="1" d="M1056.5,211.5C1071.5,211.5,1071.5,263.5,1086.5,263.5L1140.5,263.5"></path><path id="kity_path_127" fill="none" stroke="rgb(115, 161, 191)" stroke-width="1" d="M712.5,153.5A190,0,0,0,1,522.5,153.5"></path><path id="kity_path_135" fill="none" stroke="rgb(115, 161, 191)" stroke-width="1" d="M368.5,76.5C353.5,76.5,353.5,76.5,338.5,76.5L200.5,76.5"></path><path id="kity_path_143" fill="none" stroke="rgb(115, 161, 191)" stroke-width="1" d="M272.5,154.5C257.5,154.5,257.5,128.5,242.5,128.5L116.5,128.5"></path><path id="kity_path_151" fill="none" stroke="rgb(115, 161, 191)" stroke-width="1" d="M272.5,154.5C257.5,154.5,257.5,180.5,242.5,180.5L92.5,180.5"></path><path id="kity_path_159" fill="none" stroke="rgb(115, 161, 191)" stroke-width="1" d="M152.5,258.5C137.5,258.5,137.5,232.5,122.5,232.5L56.5,232.5"></path><path id="kity_path_167" fill="none" stroke="rgb(115, 161, 191)" stroke-width="1" d="M152.5,258.5C137.5,258.5,137.5,284.5,122.5,284.5L20.5,284.5"></path><path id="kity_path_175" fill="none" stroke="rgb(115, 161, 191)" stroke-width="1" d="M452.5,153.5C437.5,153.5,437.5,76.5,422.5,76.5L368.5,76.5"></path><path id="kity_path_191" fill="none" stroke="rgb(115, 161, 191)" stroke-width="1" d="M452.5,153.5C437.5,153.5,437.5,154.5,422.5,154.5L272.5,154.5"></path><path id="kity_path_199" fill="none" stroke="rgb(115, 161, 191)" stroke-width="1" d="M452.5,153.5C437.5,153.5,437.5,258.5,422.5,258.5L152.5,258.5"></path></g><g id="minder_node1"><path id="node_outline1" fill="rgb(115, 161, 191)" stroke="rgb(115, 161, 191)" d="M645.5,133.5h134a5,5,0,0,1,5,5v30a5,5,0,0,1,-5,5h-134a5,5,0,0,1,-5,-5v-30a5,5,0,0,1,5,-5z" stroke-width="3"></path><g id="node_text1" fill="white"><text id="kity_text_22" text-rendering="inherit" font-size="16" dy=".8em" y="145.5" x="664.5">基本类型偏执</text></g></g><g id="kity_g_14" display="none"><path id="kity_path_15" fill="rgba(0, 92, 153, 0.5)" stroke="none" d="M152.5,273.5h260v15h-260z"></path><path id="kity_path_16" fill="none" stroke="rgb(0, 76, 128)" d="M152.5,273.5L412.5,273.5" stroke-width="1"></path></g><g id="minder_node2"><g id="node_expander1" style="cursor: pointer;"><path id="kity_path_36" fill="white" stroke="gray" d="M903.5,57.5A6,6,0,1,1,891.5,57.5A6,6,0,1,1,903.5,57.5"></path><path id="kity_path_37" fill="none" stroke="gray" d="M893,57.5L902,57.5"></path></g><path id="node_outline2" fill="rgb(238, 243, 246)" stroke="rgb(115, 161, 191)" d="M907.5,44.5h62a3,3,0,0,1,3,3v20a3,3,0,0,1,-3,3h-62a3,3,0,0,1,-3,-3v-20a3,3,0,0,1,3,-3z" stroke-width="1"></path><g id="node_text2" fill="black"><text id="kity_text_33" text-rendering="inherit" font-size="14" dy=".8em" y="50.5" x="924.5">含义</text></g></g><g id="minder_node3"><g id="node_expander2" style="cursor: pointer;" display="none"><path id="kity_path_44" fill="white" stroke="gray" d="M1012.5,31.5A6,6,0,1,1,1000.5,31.5A6,6,0,1,1,1012.5,31.5"></path><path id="kity_path_45" fill="none" stroke="gray"></path></g><path id="node_outline3" fill="none" stroke="none" d="M1017.5,20.5h262a5,5,0,0,1,5,5v12a5,5,0,0,1,-5,5h-262a5,5,0,0,1,-5,-5v-12a5,5,0,0,1,5,-5z" stroke-width="3"></path><g id="node_text3" fill="black"><text id="kity_text_41" text-rendering="inherit" font-size="12" dy=".8em" y="25.5" x="1022.5">大量使用基本类型，即整数、浮点数和字符串等</text></g></g><g id="minder_node4"><g id="node_expander3" style="cursor: pointer;" display="none"><path id="kity_path_52" fill="white" stroke="gray" d="M1012.5,83.5A6,6,0,1,1,1000.5,83.5A6,6,0,1,1,1012.5,83.5"></path><path id="kity_path_53" fill="none" stroke="gray"></path></g><path id="node_outline4" fill="none" stroke="none" d="M1017.5,72.5h202a5,5,0,0,1,5,5v12a5,5,0,0,1,-5,5h-202a5,5,0,0,1,-5,-5v-12a5,5,0,0,1,5,-5z" stroke-width="3"></path><g id="node_text4" fill="black"><text id="kity_text_49" text-rendering="inherit" font-size="12" dy=".8em" y="77.5" x="1022.5">不愿意创建对自己问题域有用的对象</text></g></g><g id="minder_node5"><g id="node_expander4" style="cursor: pointer;"><path id="kity_path_60" fill="white" stroke="gray" d="M903.5,249.5A6,6,0,1,1,891.5,249.5A6,6,0,1,1,903.5,249.5"></path><path id="kity_path_61" fill="none" stroke="gray" d="M893,249.5L902,249.5"></path></g><path id="node_outline5" fill="rgb(238, 243, 246)" stroke="rgb(115, 161, 191)" d="M907.5,236.5h62a3,3,0,0,1,3,3v20a3,3,0,0,1,-3,3h-62a3,3,0,0,1,-3,-3v-20a3,3,0,0,1,3,-3z" stroke-width="1"></path><g id="node_text5" fill="black"><text id="kity_text_57" text-rendering="inherit" font-size="14" dy=".8em" y="242.5" x="924.5">示例</text></g></g><g id="minder_node7"><g id="node_expander6" style="cursor: pointer;"><path id="kity_path_76" fill="white" stroke="gray" d="M1012.5,197.5A6,6,0,1,1,1000.5,197.5A6,6,0,1,1,1012.5,197.5"></path><path id="kity_path_77" fill="none" stroke="gray" d="M1002,197.5L1011,197.5"></path></g><path id="node_outline7" fill="none" stroke="none" d="M1017.5,186.5h34a5,5,0,0,1,5,5v12a5,5,0,0,1,-5,5h-34a5,5,0,0,1,-5,-5v-12a5,5,0,0,1,5,-5z" stroke-width="3"></path><g id="node_text7" fill="black"><text id="kity_text_73" text-rendering="inherit" font-size="12" dy=".8em" y="191.5" x="1022.5">数字</text></g></g><g id="minder_node8"><g id="node_expander7" style="cursor: pointer;"><path id="kity_path_84" fill="white" stroke="gray" d="M1012.5,301.5A6,6,0,1,1,1000.5,301.5A6,6,0,1,1,1012.5,301.5"></path><path id="kity_path_85" fill="none" stroke="gray" d="M1002,301.5L1011,301.5"></path></g><path id="node_outline8" fill="none" stroke="none" d="M1017.5,290.5h46a5,5,0,0,1,5,5v12a5,5,0,0,1,-5,5h-46a5,5,0,0,1,-5,-5v-12a5,5,0,0,1,5,-5z" stroke-width="3"></path><g id="node_text8" fill="black"><text id="kity_text_81" text-rendering="inherit" font-size="12" dy=".8em" y="295.5" x="1022.5">字符串</text></g></g><g id="minder_node9"><g id="node_expander8" style="cursor: pointer;" display="none"><path id="kity_path_92" fill="white" stroke="gray" d="M1108.5,301.5A6,6,0,1,1,1096.5,301.5A6,6,0,1,1,1108.5,301.5"></path><path id="kity_path_93" fill="none" stroke="gray"></path></g><path id="node_outline9" fill="none" stroke="none" d="M1113.5,290.5h58a5,5,0,0,1,5,5v12a5,5,0,0,1,-5,5h-58a5,5,0,0,1,-5,-5v-12a5,5,0,0,1,5,-5z" stroke-width="3"></path><g id="node_text9" fill="black"><text id="kity_text_89" text-rendering="inherit" font-size="12" dy=".8em" y="295.5" x="1118.5">电话号码</text></g></g><g id="minder_node11"><g id="node_expander10" style="cursor: pointer;" display="none"><path id="kity_path_108" fill="white" stroke="gray" d="M1096.5,145.5A6,6,0,1,1,1084.5,145.5A6,6,0,1,1,1096.5,145.5"></path><path id="kity_path_109" fill="none" stroke="gray"></path></g><path id="node_outline11" fill="none" stroke="none" d="M1101.5,134.5h22a5,5,0,0,1,5,5v12a5,5,0,0,1,-5,5h-22a5,5,0,0,1,-5,-5v-12a5,5,0,0,1,5,-5z" stroke-width="3"></path><g id="node_text11" fill="black"><text id="kity_text_105" text-rendering="inherit" font-size="12" dy=".8em" y="139.5" x="1106.5">钱</text></g></g><g id="minder_node12"><g id="node_expander11" style="cursor: pointer;" display="none"><path id="kity_path_116" fill="white" stroke="gray" d="M1096.5,197.5A6,6,0,1,1,1084.5,197.5A6,6,0,1,1,1096.5,197.5"></path><path id="kity_path_117" fill="none" stroke="gray"></path></g><path id="node_outline12" fill="none" stroke="none" d="M1101.5,186.5h34a5,5,0,0,1,5,5v12a5,5,0,0,1,-5,5h-34a5,5,0,0,1,-5,-5v-12a5,5,0,0,1,5,-5z" stroke-width="3"></path><g id="node_text12" fill="black"><text id="kity_text_113" text-rendering="inherit" font-size="12" dy=".8em" y="191.5" x="1106.5">坐标</text></g></g><g id="minder_node13"><g id="node_expander12" style="cursor: pointer;" display="none"><path id="kity_path_124" fill="white" stroke="gray" d="M1096.5,249.5A6,6,0,1,1,1084.5,249.5A6,6,0,1,1,1096.5,249.5"></path><path id="kity_path_125" fill="none" stroke="gray"></path></g><path id="node_outline13" fill="none" stroke="none" d="M1101.5,238.5h34a5,5,0,0,1,5,5v12a5,5,0,0,1,-5,5h-34a5,5,0,0,1,-5,-5v-12a5,5,0,0,1,5,-5z" stroke-width="3"></path><g id="node_text13" fill="black"><text id="kity_text_121" text-rendering="inherit" font-size="12" dy=".8em" y="243.5" x="1106.5">范围</text></g></g><g id="minder_node14"><g id="node_expander13" style="cursor: pointer;"><path id="kity_path_132" fill="white" stroke="gray" d="M533.5,153.5A6,6,0,1,1,521.5,153.5A6,6,0,1,1,533.5,153.5"></path><path id="kity_path_133" fill="none" stroke="gray" d="M523,153.5L532,153.5"></path></g><path id="node_outline14" fill="rgb(238, 243, 246)" stroke="rgb(115, 161, 191)" d="M455.5,140.5h62a3,3,0,0,1,3,3v20a3,3,0,0,1,-3,3h-62a3,3,0,0,1,-3,-3v-20a3,3,0,0,1,3,-3z" stroke-width="1"></path><g id="node_text14" fill="black"><text id="kity_text_129" text-rendering="inherit" font-size="14" dy=".8em" y="146.5" x="472.5">重构</text></g></g><g id="minder_node15" opacity="1"><g id="node_expander14" style="cursor: pointer;" display="none"><path id="kity_path_140" fill="white" stroke="gray" d="M340.5,62.5A6,6,0,1,1,328.5,62.5A6,6,0,1,1,340.5,62.5"></path><path id="kity_path_141" fill="none" stroke="gray"></path></g><path id="node_outline15" fill="none" stroke="none" d="M205.5,51.5h118a5,5,0,0,1,5,5v12a5,5,0,0,1,-5,5h-118a5,5,0,0,1,-5,-5v-12a5,5,0,0,1,5,-5z" stroke-width="3"></path><g id="node_text15" fill="black"><text id="kity_text_137" text-rendering="inherit" font-size="12" dy=".8em" y="56.5" x="210.5">以对象取代基本类型</text></g></g><g id="minder_node16" opacity="1"><g id="node_expander15" style="cursor: pointer;" display="none"><path id="kity_path_148" fill="white" stroke="gray" d="M244.5,114.5A6,6,0,1,1,232.5,114.5A6,6,0,1,1,244.5,114.5"></path><path id="kity_path_149" fill="none" stroke="gray"></path></g><path id="node_outline16" fill="none" stroke="none" d="M121.5,103.5h106a5,5,0,0,1,5,5v12a5,5,0,0,1,-5,5h-106a5,5,0,0,1,-5,-5v-12a5,5,0,0,1,5,-5z" stroke-width="3"></path><g id="node_text16" fill="black"><text id="kity_text_145" text-rendering="inherit" font-size="12" dy=".8em" y="108.5" x="126.5">以子类取代类型码</text></g></g><g id="minder_node17" opacity="1"><g id="node_expander16" style="cursor: pointer;" display="none"><path id="kity_path_156" fill="white" stroke="gray" d="M244.5,166.5A6,6,0,1,1,232.5,166.5A6,6,0,1,1,244.5,166.5"></path><path id="kity_path_157" fill="none" stroke="gray"></path></g><path id="node_outline17" fill="none" stroke="none" d="M97.5,155.5h130a5,5,0,0,1,5,5v12a5,5,0,0,1,-5,5h-130a5,5,0,0,1,-5,-5v-12a5,5,0,0,1,5,-5z" stroke-width="3"></path><g id="node_text17" fill="black"><text id="kity_text_153" text-rendering="inherit" font-size="12" dy=".8em" y="160.5" x="102.5">以多态取代条件表达式</text></g></g><g id="minder_node18" opacity="1"><g id="node_expander17" style="cursor: pointer;" display="none"><path id="kity_path_164" fill="white" stroke="gray" d="M124.5,218.5A6,6,0,1,1,112.5,218.5A6,6,0,1,1,124.5,218.5"></path><path id="kity_path_165" fill="none" stroke="gray"></path></g><path id="node_outline18" fill="none" stroke="none" d="M61.5,207.5h46a5,5,0,0,1,5,5v12a5,5,0,0,1,-5,5h-46a5,5,0,0,1,-5,-5v-12a5,5,0,0,1,5,-5z" stroke-width="3"></path><g id="node_text18" fill="black"><text id="kity_text_161" text-rendering="inherit" font-size="12" dy=".8em" y="212.5" x="66.5">提炼类</text></g></g><g id="minder_node19" opacity="1"><g id="node_expander18" style="cursor: pointer;" display="none"><path id="kity_path_172" fill="white" stroke="gray" d="M124.5,270.5A6,6,0,1,1,112.5,270.5A6,6,0,1,1,124.5,270.5"></path><path id="kity_path_173" fill="none" stroke="gray"></path></g><path id="node_outline19" fill="none" stroke="none" d="M25.5,259.5h82a5,5,0,0,1,5,5v12a5,5,0,0,1,-5,5h-82a5,5,0,0,1,-5,-5v-12a5,5,0,0,1,5,-5z" stroke-width="3"></path><g id="node_text19" fill="black"><text id="kity_text_169" text-rendering="inherit" font-size="12" dy=".8em" y="264.5" x="30.5">引入参数对象</text></g></g><g id="minder_node20"><g id="node_expander19" style="cursor: pointer;"><path id="kity_path_180" fill="white" stroke="gray" d="M424.5,62.5A6,6,0,1,1,412.5,62.5A6,6,0,1,1,424.5,62.5"></path><path id="kity_path_181" fill="none" stroke="gray" d="M414,62.5L423,62.5"></path></g><path id="node_outline20" fill="none" stroke="none" d="M373.5,51.5h34a5,5,0,0,1,5,5v12a5,5,0,0,1,-5,5h-34a5,5,0,0,1,-5,-5v-12a5,5,0,0,1,5,-5z" stroke-width="3"></path><g id="node_text20" fill="black"><text id="kity_text_177" text-rendering="inherit" font-size="12" dy=".8em" y="56.5" x="378.5">常见</text></g></g><g id="minder_node22"><g id="node_expander21" style="cursor: pointer;"><path id="kity_path_196" fill="white" stroke="gray" d="M424.5,140.5A6,6,0,1,1,412.5,140.5A6,6,0,1,1,424.5,140.5"></path><path id="kity_path_197" fill="none" stroke="gray" d="M414,140.5L423,140.5"></path></g><path id="node_outline22" fill="none" stroke="none" d="M277.5,129.5h130a5,5,0,0,1,5,5v12a5,5,0,0,1,-5,5h-130a5,5,0,0,1,-5,-5v-12a5,5,0,0,1,5,-5z" stroke-width="3"></path><g id="node_text22" fill="black"><text id="kity_text_193" text-rendering="inherit" font-size="12" dy=".8em" y="134.5" x="282.5">控制条件行为的类型码</text></g></g><g id="minder_node23"><g id="node_expander22" style="cursor: pointer;"><path id="kity_path_204" fill="white" stroke="gray" d="M424.5,244.5A6,6,0,1,1,412.5,244.5A6,6,0,1,1,424.5,244.5"></path><path id="kity_path_205" fill="none" stroke="gray" d="M414,244.5L423,244.5"></path></g><path id="node_outline23" fill="none" stroke="none" d="M157.5,233.5h250a5,5,0,0,1,5,5v12a5,5,0,0,1,-5,5h-250a5,5,0,0,1,-5,-5v-12a5,5,0,0,1,5,-5z" stroke-width="3"></path><g id="node_text23" fill="black"><text id="kity_text_201" text-rendering="inherit" font-size="12" dy=".8em" y="238.5" x="162.5">数据泥团：一组总是同时出现的基本类型数据</text></g></g><g id="kity_g_12" display="none"><path id="kity_path_13" fill="none" stroke="rgb(66, 94, 112)" d="M157.5,246.5h250a5,5,0,0,1,5,5v12a5,5,0,0,1,-5,5h-250a5,5,0,0,1,-5,-5v-12a5,5,0,0,1,5,-5z" stroke-width="5"></path></g></g></g></svg>